<svg width="30" height="30" viewBox="0 0 30 30" fill="none" xmlns="http://www.w3.org/2000/svg">
<path fill-rule="evenodd" clip-rule="evenodd" d="M23.8392 23.8373C20.019 27.6579 14.3622 28.4834 9.73302 26.3425C9.04963 26.0674 8.48936 25.845 7.95672 25.845C6.47311 25.8538 4.62646 27.2923 3.6667 26.3337C2.70694 25.3739 4.14658 23.5258 4.14658 22.0332C4.14658 21.5005 3.93302 20.9502 3.65791 20.2655C1.51604 15.637 2.34264 9.97836 6.16282 6.15901C11.0395 1.28054 18.9625 1.28054 23.8392 6.15775C28.7247 11.0438 28.7159 18.9601 23.8392 23.8373Z" stroke="#202831" stroke-width="1.5" stroke-linecap="round" stroke-linejoin="round"/>
<path d="M19.9243 15.5164H19.9356" stroke="#202831" stroke-width="2" stroke-linecap="round" stroke-linejoin="round"/>
<path d="M14.913 15.5164H14.9242" stroke="#202831" stroke-width="2" stroke-linecap="round" stroke-linejoin="round"/>
<path d="M9.90172 15.5164H9.91297" stroke="#202831" stroke-width="2" stroke-linecap="round" stroke-linejoin="round"/>
</svg>
