<svg width="76" height="48" viewBox="0 0 76 48" fill="none" xmlns="http://www.w3.org/2000/svg">
<path fill-rule="evenodd" clip-rule="evenodd" d="M34.8664 40.3463C50.0523 39.5942 62 31.6668 62 21.9984C62 21.1709 61.9125 20.3562 61.7429 19.5576C70.0916 21.595 76 26.6357 76 32.5313C76 35.9229 74.0447 39.0316 70.7943 41.4483L75.1691 45.7142C75.9232 46.4496 75.1156 47.6818 74.1006 47.3443L65.2767 44.4105C61.851 45.7166 57.8175 46.47 53.5 46.47C45.7487 46.47 38.9128 44.0418 34.8664 40.3463Z" fill="#212122"/>
<path fill-rule="evenodd" clip-rule="evenodd" d="M60.2193 19.5986C60.2193 30.092 47.0117 38.5986 30.7193 38.5986C25.0585 38.5986 19.7701 37.5717 15.2788 35.7913L2.29974 40.2778C1.30025 40.6233 0.518467 39.3833 1.26111 38.6304L8.04461 31.7535C3.78296 28.4592 1.2193 24.2218 1.2193 19.5986C1.2193 9.10522 14.4269 0.598633 30.7193 0.598633C47.0117 0.598633 60.2193 9.10522 60.2193 19.5986ZM21.7838 14.8386H16.2638V26.5986H18.0398V21.2866H20.9518V19.7186H18.0398V16.3906H21.7838V14.8386ZM32.8415 26.5986L27.1775 14.8226H27.0015L21.3695 26.5986H23.3695L24.3776 24.2946H29.7696L30.7775 26.5986H32.8415ZM25.0975 22.6786L26.3776 19.8306L27.0816 18.2306H27.1136L27.8015 19.8466L29.0655 22.6786H25.0975ZM43.9343 23.7506C44.4143 22.8653 44.6543 21.8466 44.6543 20.6946C44.6543 19.468 44.3876 18.4013 43.8543 17.4946C43.321 16.5773 42.601 15.8733 41.6943 15.3826C40.7983 14.892 39.817 14.6466 38.7503 14.6466C37.6836 14.6466 36.697 14.892 35.7903 15.3826C34.8943 15.8733 34.1796 16.5773 33.6463 17.4946C33.113 18.4013 32.8463 19.468 32.8463 20.6946C32.8463 21.9106 33.113 22.9773 33.6463 23.8946C34.1796 24.812 34.8943 25.5213 35.7903 26.0226C36.697 26.5133 37.6836 26.7586 38.7503 26.7586C39.3796 26.7586 39.9983 26.668 40.6063 26.4866L41.6623 28.1026H43.4383L41.9823 25.8466C42.8036 25.3346 43.4543 24.636 43.9343 23.7506ZM35.2943 23.1106C34.9316 22.4386 34.7503 21.6386 34.7503 20.7106C34.7503 19.772 34.9263 18.972 35.2783 18.3106C35.6303 17.6386 36.1103 17.132 36.7183 16.7906C37.3263 16.4493 38.0036 16.2786 38.7503 16.2786C39.497 16.2786 40.169 16.4493 40.7663 16.7906C41.3743 17.132 41.8543 17.6386 42.2063 18.3106C42.569 18.972 42.7503 19.772 42.7503 20.7106C42.7503 21.5533 42.601 22.2893 42.3023 22.9186C42.0143 23.548 41.609 24.0493 41.0863 24.4226L40.3983 23.3026H38.6063L39.6783 25.0466C39.3903 25.1106 39.081 25.1426 38.7503 25.1426C38.0356 25.1426 37.369 24.972 36.7503 24.6306C36.1423 24.2786 35.657 23.772 35.2943 23.1106Z" fill="#212122"/>
</svg>
