<svg width="74" height="74" viewBox="0 0 74 74" fill="none" xmlns="http://www.w3.org/2000/svg">
<path d="M55.5 67.8333C60.6086 67.8333 64.75 63.692 64.75 58.5833C64.75 53.4747 60.6086 49.3333 55.5 49.3333C50.3914 49.3333 46.25 53.4747 46.25 58.5833C46.25 63.692 50.3914 67.8333 55.5 67.8333Z" stroke="#121212" stroke-width="5" stroke-linecap="round" stroke-linejoin="round"/>
<path d="M18.5 46.25C23.6086 46.25 27.75 42.1086 27.75 37C27.75 31.8914 23.6086 27.75 18.5 27.75C13.3914 27.75 9.25 31.8914 9.25 37C9.25 42.1086 13.3914 46.25 18.5 46.25Z" stroke="#121212" stroke-width="5" stroke-linecap="round" stroke-linejoin="round"/>
<path d="M26.4858 41.6559L47.545 53.9275" stroke="#121212" stroke-width="5" stroke-linecap="round" stroke-linejoin="round"/>
<path d="M55.5 24.6667C60.6086 24.6667 64.75 20.5253 64.75 15.4167C64.75 10.308 60.6086 6.16666 55.5 6.16666C50.3914 6.16666 46.25 10.308 46.25 15.4167C46.25 20.5253 50.3914 24.6667 55.5 24.6667Z" stroke="#121212" stroke-width="5" stroke-linecap="round" stroke-linejoin="round"/>
<path d="M47.5142 20.0725L26.4858 32.3442" stroke="#121212" stroke-width="5" stroke-linecap="round" stroke-linejoin="round"/>
</svg>
