<svg width="24" height="24" viewBox="0 0 24 24" fill="none" xmlns="http://www.w3.org/2000/svg">
<path fill-rule="evenodd" clip-rule="evenodd" d="M12.1705 15.5317C8.30286 15.5317 5 16.1165 5 18.4584C5 20.8003 8.2819 21.406 12.1705 21.406C16.0381 21.406 19.34 20.8203 19.34 18.4794C19.34 16.1384 16.059 15.5317 12.1705 15.5317Z" stroke="#202831" stroke-width="1.5" stroke-linecap="round" stroke-linejoin="round"/>
<path fill-rule="evenodd" clip-rule="evenodd" d="M12.1705 12.1914C14.7086 12.1914 16.7657 10.1333 16.7657 7.59524C16.7657 5.05714 14.7086 3 12.1705 3C9.6324 3 7.57431 5.05714 7.57431 7.59524C7.56574 10.1248 9.60954 12.1829 12.1381 12.1914H12.1705Z" stroke="#202831" stroke-width="1.42857" stroke-linecap="round" stroke-linejoin="round"/>
<path fill-rule="evenodd" clip-rule="evenodd" d="M12.0173 18.4028L11.825 18.6248L11.5 19L11.825 19.3753L12.375 20.0104V20.299L12.5 20.1547L12.625 20.2991V20.0104L13.175 19.3753L13.5 19L13.175 18.6247L12.9828 18.4027L13.0143 18.3637L14.8845 16.05L15.5311 15.25H14.5025H10.4976H9.46893L10.1156 16.05L11.9857 18.3637L12.0173 18.4028ZM13.8558 16.05L12.5 17.7274L11.1442 16.05H13.8558Z" fill="#202831"/>
</svg>
