<svg width="40" height="40" viewBox="0 0 40 40" fill="none" xmlns="http://www.w3.org/2000/svg">
<path fill-rule="evenodd" clip-rule="evenodd" d="M28.2323 5C30.4673 5 32.6173 5.88333 34.199 7.46833C35.7823 9.05 36.6673 11.1833 36.6673 13.4167V26.5833C36.6673 31.2333 32.884 35 28.2323 35H11.7673C7.11565 35 3.33398 31.2333 3.33398 26.5833V13.4167C3.33398 8.76667 7.09898 5 11.7673 5H28.2323ZM30.884 15.9L31.0173 15.7667C31.4157 15.2833 31.4157 14.5833 30.999 14.1C30.7673 13.8517 30.449 13.7 30.1173 13.6667C29.7673 13.6483 29.434 13.7667 29.1823 14L21.6673 20C20.7007 20.8017 19.3157 20.8017 18.334 20L10.834 14C10.3157 13.6167 9.59898 13.6667 9.16732 14.1167C8.71732 14.5667 8.66732 15.2833 9.04898 15.7833L9.26732 16L16.8507 21.9167C17.784 22.65 18.9157 23.05 20.1007 23.05C21.2823 23.05 22.434 22.65 23.3657 21.9167L30.884 15.9Z" fill="#202831"/>
</svg>
