<svg width="88" height="59" viewBox="0 0 88 59" fill="none" xmlns="http://www.w3.org/2000/svg">
<mask id="path-1-inside-1_627_1677" fill="white">
<path fill-rule="evenodd" clip-rule="evenodd" d="M39.8993 45.7476C55.0852 44.9956 67.0329 37.0682 67.0329 27.3997C67.0329 26.5723 66.9454 25.7575 66.7758 24.959C75.1245 26.9963 81.0329 32.037 81.0329 37.9326C81.0329 41.3242 79.0776 44.4329 75.8271 46.8496L80.202 51.1156C80.9561 51.8509 80.1484 53.0832 79.1335 52.7457L70.3096 49.8119C66.8839 51.118 62.8504 51.8713 58.5329 51.8713C50.7816 51.8713 43.9457 49.4431 39.8993 45.7476Z"/>
</mask>
<path fill-rule="evenodd" clip-rule="evenodd" d="M39.8993 45.7476C55.0852 44.9956 67.0329 37.0682 67.0329 27.3997C67.0329 26.5723 66.9454 25.7575 66.7758 24.959C75.1245 26.9963 81.0329 32.037 81.0329 37.9326C81.0329 41.3242 79.0776 44.4329 75.8271 46.8496L80.202 51.1156C80.9561 51.8509 80.1484 53.0832 79.1335 52.7457L70.3096 49.8119C66.8839 51.118 62.8504 51.8713 58.5329 51.8713C50.7816 51.8713 43.9457 49.4431 39.8993 45.7476Z" fill="#E7B75F"/>
<path d="M39.8993 45.7476L39.8498 44.7488L37.4528 44.8676L39.2249 46.486L39.8993 45.7476ZM66.7758 24.959L67.0129 23.9875L65.4671 23.6103L65.7976 25.1667L66.7758 24.959ZM75.8271 46.8496L75.2305 46.0472L74.2894 46.7469L75.129 47.5656L75.8271 46.8496ZM80.202 51.1156L80.9001 50.3996L80.9001 50.3996L80.202 51.1156ZM79.1335 52.7457L79.449 51.7968L79.449 51.7968L79.1335 52.7457ZM70.3096 49.8119L70.6251 48.863L70.2866 48.7504L69.9533 48.8775L70.3096 49.8119ZM66.0329 27.3997C66.0329 31.7878 63.3212 35.9152 58.6029 39.0875C53.8937 42.2536 47.2937 44.3802 39.8498 44.7488L39.9488 46.7464C47.6908 46.363 54.6576 44.1499 59.7188 40.7472C64.7708 37.3506 68.0329 32.6802 68.0329 27.3997H66.0329ZM65.7976 25.1667C65.9529 25.8981 66.0329 26.6432 66.0329 27.3997H68.0329C68.0329 26.5013 67.9378 25.617 67.754 24.7513L65.7976 25.1667ZM66.5387 25.9305C70.591 26.9194 73.9963 28.6252 76.3689 30.7447C78.7388 32.8618 80.0329 35.3428 80.0329 37.9326H82.0329C82.0329 34.6268 80.3729 31.6398 77.7013 29.2532C75.0326 26.8691 71.3094 25.036 67.0129 23.9875L66.5387 25.9305ZM80.0329 37.9326C80.0329 40.9092 78.3186 43.7511 75.2305 46.0472L76.4238 47.6521C79.8365 45.1147 82.0329 41.7393 82.0329 37.9326H80.0329ZM75.129 47.5656L79.5038 51.8315L80.9001 50.3996L76.5253 46.1337L75.129 47.5656ZM79.5038 51.8315C79.5151 51.8425 79.5127 51.8435 79.5075 51.8324C79.5025 51.8215 79.4991 51.8082 79.4982 51.7955C79.4966 51.7722 79.5039 51.7709 79.4948 51.7847C79.4911 51.7904 79.4864 51.7955 79.482 51.7992C79.4777 51.8027 79.4752 51.8036 79.4754 51.8035C79.4756 51.8035 79.4761 51.8033 79.4769 51.8031C79.4777 51.803 79.478 51.803 79.4777 51.803C79.4773 51.803 79.4752 51.803 79.4711 51.8024C79.4669 51.8018 79.4596 51.8003 79.449 51.7968L78.8179 53.6946C79.8069 54.0234 80.7151 53.5714 81.1675 52.8812C81.6243 52.1842 81.6695 51.1498 80.9001 50.3996L79.5038 51.8315ZM79.449 51.7968L70.6251 48.863L69.9941 50.7608L78.8179 53.6946L79.449 51.7968ZM69.9533 48.8775C66.649 50.1373 62.737 50.8713 58.5329 50.8713V52.8713C62.9638 52.8713 67.1189 52.0986 70.6658 50.7463L69.9533 48.8775ZM58.5329 50.8713C50.9613 50.8713 44.39 48.4946 40.5737 45.0092L39.2249 46.486C43.5014 50.3916 50.6019 52.8713 58.5329 52.8713V50.8713Z" fill="black" mask="url(#path-1-inside-1_627_1677)"/>
<mask id="path-3-outside-2_627_1677" maskUnits="userSpaceOnUse" x="4" y="5" width="63" height="42" fill="black">
<rect fill="white" x="4" y="5" width="63" height="42"/>
<path fill-rule="evenodd" clip-rule="evenodd" d="M65.2522 25C65.2522 35.4934 52.0446 44 35.7522 44C30.0914 44 24.803 42.9731 20.3117 41.1927L7.33264 45.6792C6.33315 46.0247 5.55136 44.7847 6.29401 44.0318L13.0775 37.1549C8.81586 33.8606 6.25219 29.6231 6.25219 25C6.25219 14.5066 19.4598 6 35.7522 6C52.0446 6 65.2522 14.5066 65.2522 25ZM26.8167 20.24H21.2967V32H23.0727V26.688H25.9847V25.12H23.0727V21.792H26.8167V20.24ZM37.8744 32L32.2104 20.224H32.0344L26.4024 32H28.4024L29.4104 29.696H34.8024L35.8104 32H37.8744ZM30.1304 28.08L31.4104 25.232L32.1144 23.632H32.1464L32.8344 25.248L34.0984 28.08H30.1304ZM48.9672 29.152C49.4472 28.2667 49.6872 27.248 49.6872 26.096C49.6872 24.8693 49.4205 23.8027 48.8872 22.896C48.3539 21.9787 47.6339 21.2747 46.7272 20.784C45.8312 20.2933 44.8499 20.048 43.7832 20.048C42.7165 20.048 41.7299 20.2933 40.8232 20.784C39.9272 21.2747 39.2125 21.9787 38.6792 22.896C38.1459 23.8027 37.8792 24.8693 37.8792 26.096C37.8792 27.312 38.1459 28.3787 38.6792 29.296C39.2125 30.2133 39.9272 30.9227 40.8232 31.424C41.7299 31.9147 42.7165 32.16 43.7832 32.16C44.4125 32.16 45.0312 32.0693 45.6392 31.888L46.6952 33.504H48.4712L47.0152 31.248C47.8365 30.736 48.4872 30.0373 48.9672 29.152ZM40.3272 28.512C39.9645 27.84 39.7832 27.04 39.7832 26.112C39.7832 25.1733 39.9592 24.3733 40.3112 23.712C40.6632 23.04 41.1432 22.5333 41.7512 22.192C42.3592 21.8507 43.0365 21.68 43.7832 21.68C44.5299 21.68 45.2019 21.8507 45.7992 22.192C46.4072 22.5333 46.8872 23.04 47.2392 23.712C47.6019 24.3733 47.7832 25.1733 47.7832 26.112C47.7832 26.9547 47.6339 27.6907 47.3352 28.32C47.0472 28.9493 46.6419 29.4507 46.1192 29.824L45.4312 28.704H43.6392L44.7112 30.448C44.4232 30.512 44.1139 30.544 43.7832 30.544C43.0685 30.544 42.4019 30.3733 41.7832 30.032C41.1752 29.68 40.6899 29.1733 40.3272 28.512Z"/>
</mask>
<path fill-rule="evenodd" clip-rule="evenodd" d="M65.2522 25C65.2522 35.4934 52.0446 44 35.7522 44C30.0914 44 24.803 42.9731 20.3117 41.1927L7.33264 45.6792C6.33315 46.0247 5.55136 44.7847 6.29401 44.0318L13.0775 37.1549C8.81586 33.8606 6.25219 29.6231 6.25219 25C6.25219 14.5066 19.4598 6 35.7522 6C52.0446 6 65.2522 14.5066 65.2522 25ZM26.8167 20.24H21.2967V32H23.0727V26.688H25.9847V25.12H23.0727V21.792H26.8167V20.24ZM37.8744 32L32.2104 20.224H32.0344L26.4024 32H28.4024L29.4104 29.696H34.8024L35.8104 32H37.8744ZM30.1304 28.08L31.4104 25.232L32.1144 23.632H32.1464L32.8344 25.248L34.0984 28.08H30.1304ZM48.9672 29.152C49.4472 28.2667 49.6872 27.248 49.6872 26.096C49.6872 24.8693 49.4205 23.8027 48.8872 22.896C48.3539 21.9787 47.6339 21.2747 46.7272 20.784C45.8312 20.2933 44.8499 20.048 43.7832 20.048C42.7165 20.048 41.7299 20.2933 40.8232 20.784C39.9272 21.2747 39.2125 21.9787 38.6792 22.896C38.1459 23.8027 37.8792 24.8693 37.8792 26.096C37.8792 27.312 38.1459 28.3787 38.6792 29.296C39.2125 30.2133 39.9272 30.9227 40.8232 31.424C41.7299 31.9147 42.7165 32.16 43.7832 32.16C44.4125 32.16 45.0312 32.0693 45.6392 31.888L46.6952 33.504H48.4712L47.0152 31.248C47.8365 30.736 48.4872 30.0373 48.9672 29.152ZM40.3272 28.512C39.9645 27.84 39.7832 27.04 39.7832 26.112C39.7832 25.1733 39.9592 24.3733 40.3112 23.712C40.6632 23.04 41.1432 22.5333 41.7512 22.192C42.3592 21.8507 43.0365 21.68 43.7832 21.68C44.5299 21.68 45.2019 21.8507 45.7992 22.192C46.4072 22.5333 46.8872 23.04 47.2392 23.712C47.6019 24.3733 47.7832 25.1733 47.7832 26.112C47.7832 26.9547 47.6339 27.6907 47.3352 28.32C47.0472 28.9493 46.6419 29.4507 46.1192 29.824L45.4312 28.704H43.6392L44.7112 30.448C44.4232 30.512 44.1139 30.544 43.7832 30.544C43.0685 30.544 42.4019 30.3733 41.7832 30.032C41.1752 29.68 40.6899 29.1733 40.3272 28.512Z" fill="#E7B75F"/>
<path d="M20.3117 41.1927L20.6802 40.2631L20.3354 40.1264L19.985 40.2476L20.3117 41.1927ZM7.33264 45.6792L7.65934 46.6243L7.65934 46.6243L7.33264 45.6792ZM6.29401 44.0318L7.00593 44.734L7.00594 44.734L6.29401 44.0318ZM13.0775 37.1549L13.7894 37.8571L14.5818 37.0538L13.6891 36.3637L13.0775 37.1549ZM21.2967 20.24V19.24H20.2967V20.24H21.2967ZM26.8167 20.24H27.8167V19.24H26.8167V20.24ZM21.2967 32H20.2967V33H21.2967V32ZM23.0727 32V33H24.0727V32H23.0727ZM23.0727 26.688V25.688H22.0727V26.688H23.0727ZM25.9847 26.688V27.688H26.9847V26.688H25.9847ZM25.9847 25.12H26.9847V24.12H25.9847V25.12ZM23.0727 25.12H22.0727V26.12H23.0727V25.12ZM23.0727 21.792V20.792H22.0727V21.792H23.0727ZM26.8167 21.792V22.792H27.8167V21.792H26.8167ZM32.2104 20.224L33.1116 19.7906L32.8391 19.224H32.2104V20.224ZM37.8744 32V33H39.4651L38.7756 31.5666L37.8744 32ZM32.0344 20.224V19.224H31.4042L31.1323 19.7925L32.0344 20.224ZM26.4024 32L25.5003 31.5685L24.8157 33H26.4024V32ZM28.4024 32V33H29.0565L29.3186 32.4008L28.4024 32ZM29.4104 29.696V28.696H28.7564L28.4943 29.2952L29.4104 29.696ZM34.8024 29.696L35.7186 29.2952L35.4565 28.696H34.8024V29.696ZM35.8104 32L34.8943 32.4008L35.1564 33H35.8104V32ZM31.4104 25.232L32.3226 25.642L32.3258 25.6347L31.4104 25.232ZM30.1304 28.08L29.2183 27.6701L28.5847 29.08H30.1304V28.08ZM32.1144 23.632V22.632H31.4619L31.1991 23.2293L32.1144 23.632ZM32.1464 23.632L33.0665 23.2403L32.8076 22.632H32.1464V23.632ZM32.8344 25.248L31.9144 25.6397L31.9178 25.6477L31.9213 25.6556L32.8344 25.248ZM34.0984 28.08V29.08H35.6399L35.0116 27.6724L34.0984 28.08ZM48.9672 29.152L49.8463 29.6286L49.8463 29.6286L48.9672 29.152ZM48.8872 22.896L48.0227 23.3986L48.0253 23.403L48.8872 22.896ZM46.7272 20.784L46.2469 21.6611L46.2512 21.6635L46.7272 20.784ZM40.8232 20.784L40.3472 19.9045L40.3429 19.9069L40.8232 20.784ZM38.6792 22.896L39.5411 23.403L39.5437 23.3986L38.6792 22.896ZM38.6792 29.296L39.5437 28.7934L39.5437 28.7934L38.6792 29.296ZM40.8232 31.424L40.3349 32.2968L40.3472 32.3035L40.8232 31.424ZM45.6392 31.888L46.4763 31.341L46.0682 30.7165L45.3534 30.9297L45.6392 31.888ZM46.6952 33.504L45.8581 34.051L46.1541 34.504H46.6952V33.504ZM48.4712 33.504V34.504H50.3068L49.3114 32.9617L48.4712 33.504ZM47.0152 31.248L46.4862 30.3994L45.6241 30.9368L46.175 31.7903L47.0152 31.248ZM40.3272 28.512L39.4472 28.9869L39.4504 28.9928L40.3272 28.512ZM40.3112 23.712L41.194 24.1819L41.197 24.176L40.3112 23.712ZM41.7512 22.192L42.2407 23.064L42.2407 23.064L41.7512 22.192ZM45.7992 22.192L45.303 23.0603L45.3097 23.064L45.7992 22.192ZM47.2392 23.712L46.3534 24.176L46.3578 24.1845L46.3624 24.1928L47.2392 23.712ZM47.3352 28.32L46.4317 27.8912L46.4259 27.9039L47.3352 28.32ZM46.1192 29.824L45.2671 30.3474L45.8282 31.2608L46.7004 30.6377L46.1192 29.824ZM45.4312 28.704L46.2833 28.1806L45.9905 27.704H45.4312V28.704ZM43.6392 28.704V27.704H41.8507L42.7873 29.2277L43.6392 28.704ZM44.7112 30.448L44.9281 31.4242L46.2979 31.1198L45.5631 29.9243L44.7112 30.448ZM41.7832 30.032L41.2822 30.8974L41.2911 30.9026L41.3001 30.9076L41.7832 30.032ZM35.7522 45C44.0615 45 51.6307 42.8327 57.1533 39.2757C62.6655 35.7256 66.2522 30.7014 66.2522 25H64.2522C64.2522 29.792 61.2351 34.2679 56.0704 37.5943C50.9161 40.914 43.7353 43 35.7522 43V45ZM19.9432 42.1223C24.559 43.9521 29.9732 45 35.7522 45V43C30.2096 43 25.047 41.9941 20.6802 40.2631L19.9432 42.1223ZM7.65934 46.6243L20.6384 42.1378L19.985 40.2476L7.00593 44.734L7.65934 46.6243ZM5.58208 43.3295C4.0968 44.8353 5.66036 47.3153 7.65934 46.6243L7.00593 44.734L7.00593 44.734L5.58208 43.3295ZM12.3656 36.4526L5.58208 43.3295L7.00594 44.734L13.7894 37.8571L12.3656 36.4526ZM5.25219 25C5.25219 30.0213 8.03907 34.5241 12.4659 37.946L13.6891 36.3637C9.59264 33.1971 7.25219 29.225 7.25219 25H5.25219ZM35.7522 5C27.4429 5 19.8737 7.16731 14.3511 10.7243C8.83893 14.2744 5.25219 19.2986 5.25219 25H7.25219C7.25219 20.208 10.2693 15.7321 15.434 12.4057C20.5883 9.08598 27.7691 7 35.7522 7V5ZM66.2522 25C66.2522 19.2986 62.6655 14.2744 57.1533 10.7243C51.6307 7.16731 44.0615 5 35.7522 5V7C43.7353 7 50.9161 9.08598 56.0704 12.4057C61.2351 15.7321 64.2522 20.208 64.2522 25H66.2522ZM21.2967 21.24H26.8167V19.24H21.2967V21.24ZM22.2967 32V20.24H20.2967V32H22.2967ZM23.0727 31H21.2967V33H23.0727V31ZM22.0727 26.688V32H24.0727V26.688H22.0727ZM25.9847 25.688H23.0727V27.688H25.9847V25.688ZM24.9847 25.12V26.688H26.9847V25.12H24.9847ZM23.0727 26.12H25.9847V24.12H23.0727V26.12ZM22.0727 21.792V25.12H24.0727V21.792H22.0727ZM26.8167 20.792H23.0727V22.792H26.8167V20.792ZM25.8167 20.24V21.792H27.8167V20.24H25.8167ZM31.3093 20.6574L36.9733 32.4334L38.7756 31.5666L33.1116 19.7906L31.3093 20.6574ZM32.0344 21.224H32.2104V19.224H32.0344V21.224ZM27.3046 32.4315L32.9366 20.6555L31.1323 19.7925L25.5003 31.5685L27.3046 32.4315ZM28.4024 31H26.4024V33H28.4024V31ZM28.4943 29.2952L27.4863 31.5992L29.3186 32.4008L30.3266 30.0968L28.4943 29.2952ZM34.8024 28.696H29.4104V30.696H34.8024V28.696ZM36.7266 31.5992L35.7186 29.2952L33.8863 30.0968L34.8943 32.4008L36.7266 31.5992ZM37.8744 31H35.8104V33H37.8744V31ZM30.4983 24.8221L29.2183 27.6701L31.0426 28.4899L32.3226 25.6419L30.4983 24.8221ZM31.1991 23.2293L30.4951 24.8293L32.3258 25.6347L33.0298 24.0347L31.1991 23.2293ZM32.1464 22.632H32.1144V24.632H32.1464V22.632ZM33.7545 24.8563L33.0665 23.2403L31.2264 24.0237L31.9144 25.6397L33.7545 24.8563ZM35.0116 27.6724L33.7476 24.8404L31.9213 25.6556L33.1853 28.4876L35.0116 27.6724ZM30.1304 29.08H34.0984V27.08H30.1304V29.08ZM48.6872 26.096C48.6872 27.1057 48.478 27.9563 48.0881 28.6754L49.8463 29.6286C50.4164 28.5771 50.6872 27.3903 50.6872 26.096H48.6872ZM48.0253 23.403C48.4541 24.1321 48.6872 25.0177 48.6872 26.096H50.6872C50.6872 24.721 50.3869 23.4732 49.7491 22.389L48.0253 23.403ZM46.2512 21.6635C46.9913 22.064 47.5789 22.6353 48.0227 23.3986L49.7517 22.3934C49.1288 21.322 48.2764 20.4854 47.2031 19.9045L46.2512 21.6635ZM43.7832 21.048C44.6897 21.048 45.5047 21.2547 46.2469 21.6611L47.2075 19.9069C46.1577 19.332 45.0101 19.048 43.7832 19.048V21.048ZM41.2991 21.6635C42.0545 21.2547 42.8767 21.048 43.7832 21.048V19.048C42.5563 19.048 41.4053 19.332 40.3472 19.9045L41.2991 21.6635ZM39.5437 23.3986C39.9892 22.6324 40.5737 22.0608 41.3035 21.6611L40.3429 19.9069C39.2807 20.4886 38.4359 21.3249 37.8147 22.3934L39.5437 23.3986ZM38.8792 26.096C38.8792 25.0177 39.1123 24.1321 39.5411 23.403L37.8173 22.389C37.1795 23.4732 36.8792 24.721 36.8792 26.096H38.8792ZM39.5437 28.7934C39.1114 28.0498 38.8792 27.1616 38.8792 26.096H36.8792C36.8792 27.4624 37.1803 28.7075 37.8147 29.7986L39.5437 28.7934ZM41.3115 30.5513C40.5772 30.1404 39.9902 29.5613 39.5437 28.7934L37.8147 29.7986C38.4349 30.8653 39.2772 31.7049 40.3349 32.2967L41.3115 30.5513ZM43.7832 31.16C42.8767 31.16 42.0545 30.9533 41.2991 30.5445L40.3472 32.3035C41.4053 32.876 42.5563 33.16 43.7832 33.16V31.16ZM45.3534 30.9297C44.8374 31.0836 44.3149 31.16 43.7832 31.16V33.16C44.5101 33.16 45.225 33.0551 45.925 32.8463L45.3534 30.9297ZM47.5323 32.957L46.4763 31.341L44.8021 32.435L45.8581 34.051L47.5323 32.957ZM48.4712 32.504H46.6952V34.504H48.4712V32.504ZM46.175 31.7903L47.631 34.0463L49.3114 32.9617L47.8554 30.7057L46.175 31.7903ZM48.0881 28.6754C47.6871 29.4149 47.1545 29.9828 46.4862 30.3994L47.5442 32.0966C48.5186 31.4892 49.2873 30.6597 49.8463 29.6286L48.0881 28.6754ZM38.7832 26.112C38.7832 27.1704 38.9905 28.1408 39.4472 28.9869L41.2072 28.0371C40.9386 27.5392 40.7832 26.9096 40.7832 26.112H38.7832ZM39.4285 23.2421C38.9824 24.0802 38.7832 25.0501 38.7832 26.112H40.7832C40.7832 25.2965 40.936 24.6665 41.1939 24.1819L39.4285 23.2421ZM41.2617 21.32C40.47 21.7644 39.859 22.4202 39.4254 23.248L41.197 24.176C41.4674 23.6598 41.8164 23.3022 42.2407 23.064L41.2617 21.32ZM43.7832 20.68C42.8776 20.68 42.0297 20.8888 41.2617 21.32L42.2407 23.064C42.6887 22.8125 43.1954 22.68 43.7832 22.68V20.68ZM46.2953 21.3238C45.5342 20.8888 44.6886 20.68 43.7832 20.68V22.68C44.3711 22.68 44.8696 22.8125 45.3031 23.0602L46.2953 21.3238ZM48.125 23.248C47.6914 22.4202 47.0804 21.7644 46.2887 21.32L45.3097 23.064C45.734 23.3022 46.083 23.6598 46.3534 24.176L48.125 23.248ZM48.7832 26.112C48.7832 25.0457 48.577 24.0717 48.116 23.2312L46.3624 24.1928C46.6268 24.675 46.7832 25.3009 46.7832 26.112H48.7832ZM48.2386 28.7487C48.6128 27.9603 48.7832 27.0724 48.7832 26.112H46.7832C46.7832 26.837 46.6549 27.421 46.4318 27.8913L48.2386 28.7487ZM46.7004 30.6377C47.3763 30.155 47.8896 29.5117 48.2445 28.7361L46.4259 27.9039C46.2048 28.387 45.9074 28.7464 45.538 29.0103L46.7004 30.6377ZM44.5791 29.2274L45.2671 30.3474L46.9713 29.3006L46.2833 28.1806L44.5791 29.2274ZM43.6392 29.704H45.4312V27.704H43.6392V29.704ZM45.5631 29.9243L44.4911 28.1803L42.7873 29.2277L43.8593 30.9717L45.5631 29.9243ZM43.7832 31.544C44.1782 31.544 44.561 31.5058 44.9281 31.4242L44.4943 29.4718C44.2854 29.5182 44.0495 29.544 43.7832 29.544V31.544ZM41.3001 30.9076C42.0685 31.3315 42.9016 31.544 43.7832 31.544V29.544C43.2355 29.544 42.7353 29.4152 42.2663 29.1564L41.3001 30.9076ZM39.4504 28.9928C39.8941 29.802 40.5045 30.4472 41.2822 30.8974L42.2842 29.1666C41.8459 28.9128 41.4856 28.5446 41.204 28.0312L39.4504 28.9928Z" fill="black" mask="url(#path-3-outside-2_627_1677)"/>
</svg>
