<svg width="40" height="40" viewBox="0 0 40 40" fill="none" xmlns="http://www.w3.org/2000/svg">
<g clip-path="url(#clip0_551_1760)">
<path d="M32.7793 5H7.21484C5.99023 5 5 5.9668 5 7.16211V32.832C5 34.0273 5.99023 35 7.21484 35H32.7793C34.0039 35 35 34.0273 35 32.8379V7.16211C35 5.9668 34.0039 5 32.7793 5ZM13.9004 30.5645H9.44727V16.2441H13.9004V30.5645ZM11.6738 14.293C10.2441 14.293 9.08984 13.1387 9.08984 11.7148C9.08984 10.291 10.2441 9.13672 11.6738 9.13672C13.0977 9.13672 14.252 10.291 14.252 11.7148C14.252 13.1328 13.0977 14.293 11.6738 14.293ZM30.5645 30.5645H26.1172V23.6035C26.1172 21.9453 26.0879 19.8066 23.8027 19.8066C21.4883 19.8066 21.1367 21.6172 21.1367 23.4863V30.5645H16.6953V16.2441H20.9609V18.2012H21.0195C21.6113 17.0762 23.0645 15.8867 25.2266 15.8867C29.7324 15.8867 30.5645 18.8516 30.5645 22.707V30.5645V30.5645Z" fill="#212122"/>
</g>
<defs>
<clipPath id="clip0_551_1760">
<rect width="30" height="30" fill="white" transform="translate(5 5)"/>
</clipPath>
</defs>
</svg>
