<svg width="74" height="74" viewBox="0 0 74 74" fill="none" xmlns="http://www.w3.org/2000/svg">
<path d="M3.08333 61.6667V43.1667H21.5833" stroke="#121212" stroke-width="5" stroke-linecap="round" stroke-linejoin="round"/>
<path d="M70.9167 12.3333V30.8333H52.4167" stroke="#121212" stroke-width="5" stroke-linecap="round" stroke-linejoin="round"/>
<path d="M10.8225 27.75C12.3863 23.331 15.044 19.38 18.5477 16.2659C22.0514 13.1518 26.2869 10.976 30.8589 9.94149C35.4309 8.90701 40.1905 9.04758 44.6935 10.3501C49.1965 11.6526 53.2962 14.0746 56.61 17.39L70.9167 30.8334M3.08333 43.1667L17.39 56.61C20.7038 59.9255 24.8035 62.3475 29.3065 63.65C33.8095 64.9525 38.5691 65.0931 43.1411 64.0586C47.7131 63.0241 51.9486 60.8483 55.4523 57.7342C58.956 54.62 61.6137 50.6691 63.1775 46.25" stroke="#121212" stroke-width="5" stroke-linecap="round" stroke-linejoin="round"/>
</svg>
