<svg width="74" height="74" viewBox="0 0 74 74" fill="none" xmlns="http://www.w3.org/2000/svg">
<path d="M37 46.25C42.1086 46.25 46.25 42.1086 46.25 37C46.25 31.8914 42.1086 27.75 37 27.75C31.8914 27.75 27.75 31.8914 27.75 37C27.75 42.1086 31.8914 46.25 37 46.25Z" stroke="#121212" stroke-width="3" stroke-linecap="round" stroke-linejoin="round"/>
<path d="M59.8167 46.25C59.4062 47.18 59.2838 48.2116 59.4652 49.2118C59.6465 50.212 60.1233 51.135 60.8342 51.8617L61.0192 52.0467C61.5925 52.6194 62.0474 53.2995 62.3577 54.0481C62.668 54.7967 62.8278 55.5992 62.8278 56.4096C62.8278 57.22 62.668 58.0224 62.3577 58.7711C62.0474 59.5197 61.5925 60.1998 61.0192 60.7725C60.4465 61.3459 59.7663 61.8007 59.0177 62.111C58.2691 62.4214 57.4667 62.5811 56.6563 62.5811C55.8459 62.5811 55.0434 62.4214 54.2948 62.111C53.5462 61.8007 52.8661 61.3459 52.2933 60.7725L52.1083 60.5875C51.3817 59.8767 50.4587 59.3998 49.4585 59.2185C48.4583 59.0371 47.4267 59.1596 46.4967 59.57C45.5847 59.9609 44.807 60.6098 44.2591 61.4371C43.7113 62.2643 43.4173 63.2337 43.4133 64.2258V64.75C43.4133 66.3855 42.7636 67.954 41.6072 69.1105C40.4507 70.267 38.8822 70.9167 37.2467 70.9167C35.6112 70.9167 34.0427 70.267 32.8862 69.1105C31.7297 67.954 31.08 66.3855 31.08 64.75V64.4725C31.0561 63.4519 30.7258 62.4622 30.1319 61.6318C29.538 60.8015 28.7081 60.169 27.75 59.8167C26.82 59.4062 25.7884 59.2838 24.7882 59.4652C23.788 59.6465 22.865 60.1233 22.1383 60.8342L21.9533 61.0192C21.3806 61.5925 20.7005 62.0474 19.9519 62.3577C19.2033 62.668 18.4008 62.8278 17.5904 62.8278C16.78 62.8278 15.9776 62.668 15.229 62.3577C14.4803 62.0474 13.8002 61.5925 13.2275 61.0192C12.6542 60.4465 12.1993 59.7663 11.889 59.0177C11.5786 58.2691 11.4189 57.4667 11.4189 56.6563C11.4189 55.8459 11.5786 55.0434 11.889 54.2948C12.1993 53.5462 12.6542 52.8661 13.2275 52.2933L13.4125 52.1083C14.1233 51.3817 14.6002 50.4587 14.7815 49.4585C14.9629 48.4583 14.8404 47.4267 14.43 46.4967C14.0392 45.5847 13.3902 44.807 12.5629 44.2591C11.7357 43.7113 10.7664 43.4173 9.77418 43.4133H9.25001C7.61451 43.4133 6.04599 42.7636 4.88952 41.6072C3.73304 40.4507 3.08334 38.8822 3.08334 37.2467C3.08334 35.6112 3.73304 34.0427 4.88952 32.8862C6.04599 31.7297 7.61451 31.08 9.25001 31.08H9.52751C10.5481 31.0561 11.5379 30.7258 12.3682 30.1319C13.1985 29.538 13.831 28.7081 14.1833 27.75C14.5938 26.82 14.7162 25.7884 14.5349 24.7882C14.3535 23.788 13.8767 22.865 13.1658 22.1383L12.9808 21.9533C12.4075 21.3806 11.9526 20.7005 11.6423 19.9519C11.332 19.2033 11.1722 18.4008 11.1722 17.5904C11.1722 16.78 11.332 15.9776 11.6423 15.229C11.9526 14.4803 12.4075 13.8002 12.9808 13.2275C13.5536 12.6542 14.2337 12.1993 14.9823 11.889C15.7309 11.5786 16.5334 11.4189 17.3438 11.4189C18.1542 11.4189 18.9566 11.5786 19.7052 11.889C20.4538 12.1993 21.134 12.6542 21.7067 13.2275L21.8917 13.4125C22.6184 14.1233 23.5413 14.6002 24.5415 14.7815C25.5417 14.9629 26.5734 14.8404 27.5033 14.43H27.75C28.662 14.0392 29.4397 13.3902 29.9876 12.5629C30.5354 11.7357 30.8294 10.7664 30.8333 9.77418V9.25001C30.8333 7.61451 31.483 6.04599 32.6395 4.88952C33.796 3.73304 35.3645 3.08334 37 3.08334C38.6355 3.08334 40.204 3.73304 41.3605 4.88952C42.517 6.04599 43.1667 7.61451 43.1667 9.25001V9.52751C43.1706 10.5197 43.4646 11.4891 44.0125 12.3163C44.5603 13.1435 45.3381 13.7925 46.25 14.1833C47.18 14.5938 48.2116 14.7162 49.2118 14.5349C50.212 14.3535 51.135 13.8767 51.8617 13.1658L52.0467 12.9808C52.6194 12.4075 53.2995 11.9526 54.0481 11.6423C54.7967 11.332 55.5992 11.1722 56.4096 11.1722C57.22 11.1722 58.0224 11.332 58.7711 11.6423C59.5197 11.9526 60.1998 12.4075 60.7725 12.9808C61.3459 13.5536 61.8007 14.2337 62.111 14.9823C62.4214 15.7309 62.5811 16.5334 62.5811 17.3438C62.5811 18.1542 62.4214 18.9566 62.111 19.7052C61.8007 20.4538 61.3459 21.134 60.7725 21.7067L60.5875 21.8917C59.8767 22.6184 59.3998 23.5413 59.2185 24.5415C59.0371 25.5417 59.1596 26.5734 59.57 27.5033V27.75C59.9609 28.662 60.6098 29.4397 61.4371 29.9876C62.2643 30.5354 63.2337 30.8294 64.2258 30.8333H64.75C66.3855 30.8333 67.954 31.483 69.1105 32.6395C70.267 33.796 70.9167 35.3645 70.9167 37C70.9167 38.6355 70.267 40.204 69.1105 41.3605C67.954 42.517 66.3855 43.1667 64.75 43.1667H64.4725C63.4803 43.1706 62.511 43.4646 61.6837 44.0125C60.8565 44.5603 60.2075 45.3381 59.8167 46.25V46.25Z" stroke="#121212" stroke-width="3" stroke-linecap="round" stroke-linejoin="round"/>
</svg>
