<svg width="60" height="56" viewBox="0 0 60 56" fill="none" xmlns="http://www.w3.org/2000/svg">
<path d="M44.7192 23.2418C48.2067 22.7518 50.8917 19.7618 50.8992 16.1393C50.8992 12.5693 48.2967 9.60932 44.8842 9.04932" stroke="#212122" stroke-width="3" stroke-linecap="round" stroke-linejoin="round"/>
<path d="M49.3213 31.6257C52.6988 32.1307 55.0563 33.3132 55.0563 35.7507C55.0563 37.4282 53.9463 38.5182 52.1513 39.2032" stroke="#212122" stroke-width="3" stroke-linecap="round" stroke-linejoin="round"/>
<path fill-rule="evenodd" clip-rule="evenodd" d="M29.7167 32.6595C21.6817 32.6595 14.8192 33.877 14.8192 38.7395C14.8192 43.5995 21.6392 44.852 29.7167 44.852C37.7517 44.852 44.6117 43.647 44.6117 38.782C44.6117 33.917 37.7942 32.6595 29.7167 32.6595Z" stroke="#212122" stroke-width="3" stroke-linecap="round" stroke-linejoin="round"/>
<path fill-rule="evenodd" clip-rule="evenodd" d="M29.7168 25.7198C34.9893 25.7198 39.2643 21.4473 39.2643 16.1723C39.2643 10.8998 34.9893 6.62476 29.7168 6.62476C24.4443 6.62476 20.1693 10.8998 20.1693 16.1723C20.1493 21.4273 24.3918 25.7023 29.6468 25.7198H29.7168Z" stroke="#212122" stroke-width="3" stroke-linecap="round" stroke-linejoin="round"/>
<path d="M14.712 23.2418C11.222 22.7518 8.53951 19.7618 8.53201 16.1393C8.53201 12.5693 11.1345 9.60932 14.547 9.04932" stroke="#212122" stroke-width="3" stroke-linecap="round" stroke-linejoin="round"/>
<path d="M10.1098 31.6257C6.73226 32.1307 4.37476 33.3132 4.37476 35.7507C4.37476 37.4282 5.48476 38.5182 7.27976 39.2032" stroke="#212122" stroke-width="3" stroke-linecap="round" stroke-linejoin="round"/>
</svg>
